<svg id="Слой_1" data-name="Слой 1" xmlns="http://www.w3.org/2000/svg" viewBox="0 0 900 250"><defs><style>.cls-1{fill:#fff;}.cls-2{fill:#ff831d;}</style></defs><path class="cls-1" d="M29.82,237.5c-5.43-3.06-8.83-9.17-5.43-16.3l48.73-95.27c4.59-9,16.82-9.34,21.06,0l47.89,95.27c7,13.24-13.58,23.77-19.7,10.53l-7.47-14.95H52.24l-7.31,14.95C42.22,237.5,35.93,238.69,29.82,237.5Zm73-43.13-19.19-42-20.88,42Z"/><path class="cls-1" d="M157.52,129.4A10.59,10.59,0,0,1,168.22,119a10.34,10.34,0,0,1,10,10.36v85.08h46.19c16.65,0,17,22.25,0,22.25H168.22c-5.94,0-10.7-4.25-10.7-10.36Z"/><path class="cls-1" d="M254.49,129.4A10.59,10.59,0,0,1,265.19,119a10.34,10.34,0,0,1,10,10.36v85.08H321.4c16.64,0,17,22.25,0,22.25H265.19c-5.94,0-10.7-4.25-10.7-10.36Z"/><path class="cls-1" d="M618.53,226.55c-12,10-26.83,14.26-41.77,14.26-35.67,0-61-20.38-61-60.79,0-34.31,26.66-61,62.5-61,13.41,0,28.19,4.58,38.72,14.94,10.35,10.19-4.59,25.31-14.78,16.31-6.28-6.12-15.11-10.7-23.94-10.7-20.55,0-40.42,16.47-40.42,40.42,0,25.13,16.64,40.41,38.89,40.41,10.36,0,19.19-3.05,25.47-7.64V191.9H576.76c-15.12,0-13.59-20.72,0-20.72h34c6.29,0,12.06,4.76,12.06,10v36.18C622.78,220.43,621.42,223.32,618.53,226.55Z"/><path class="cls-1" d="M670,225.53c0,14.77-22.59,15.28-22.59.34V129.41a10.15,10.15,0,0,1,10.19-10.36h45.17c43.14,0,52,57.74,16,72.17l22.58,27.52c8.83,13.07-8.83,25.64-19,12.73l-25.64-36.68H670Zm0-50.27h32.77c22.08,0,23.44-35.66,0-35.66H670Z"/><path class="cls-1" d="M819,119.05c-30,0-61,19.59-61,59.42,0,39.68,31.08,59.59,61,58.3,28.34,0,58-19.92,58-58.3S847.34,120.51,819,119.05Zm-1.78,97.8c-18.14,0-37.89-12.95-37.89-38.38,0-25.58,19.75-38.37,37.89-38.37,18.62,0,38.54,12.79,38.54,38.37C855.76,203.9,835.84,216.85,817.22,216.85Z"/><path class="cls-2" d="M371.11,111l-19.92,32.9c-3.22-1.78-137-75.9-157-87.27-19.57-12.41-8-34-8-34S200.44,1.1,220.6,12.54c19.64,12.47,150.15,98.7,150.15,98.7Z"/><path class="cls-1" d="M495.12,160.22a12.9,12.9,0,0,1-17.68,4.4L408.18,123l-7.9,13.14,69.27,41.61a12.88,12.88,0,0,1-13.26,22.08L387,158.22l-7.9,13.13L448.39,213A12.87,12.87,0,1,1,435.14,235l-69.38-41.67c-13.66-9.61-15.82-27-15.57-38.42a68.91,68.91,0,0,1,1.06-11l-.06,0L371.11,111a74.78,74.78,0,0,1,17-9.69c9.6-3.89,21.87-6.17,33.25-.4l69.36,41.66A12.89,12.89,0,0,1,495.12,160.22Z"/></svg>