<svg id="Слой_1" data-name="Слой 1" xmlns="http://www.w3.org/2000/svg" viewBox="0 0 200 500"><defs><style>.cls-1{fill:#ff831d;}</style></defs><path class="cls-1" d="M74.84,197.26l56.29,0c.2,5.38,8.67,229,9.57,262.63-.73,33.9-36.49,35.73-36.49,35.73s-37.71-1.5-38.65-35.4c.74-34.05,9.91-262.76,9.91-262.76S75.25,197.42,74.84,197.26Z"/><path d="M40.06,4.7A18.85,18.85,0,0,1,59,23.5l.33,118.24,22.43-.06L81.37,23.43a18.85,18.85,0,1,1,37.69-.11l.33,118.24,22.43-.06-.33-118.24a18.84,18.84,0,1,1,37.67-.11s.24,80,.35,118.42c-1.69,24.39-21.88,40.28-36.32,48.6a100.69,100.69,0,0,1-14.64,7v.11l-56.28,0a110.36,110.36,0,0,1-25-13.92C35.14,174.27,23,160.63,21.6,142c-.12-38.46-.34-118.41-.34-118.41A18.85,18.85,0,0,1,40.06,4.7Z"/></svg>