<svg id="Слой_1" data-name="Слой 1" xmlns="http://www.w3.org/2000/svg" viewBox="0 0 500 500"><defs><style>.cls-1{fill:#ff831d;}</style></defs><path class="cls-1" d="M218.14,237.37l46.3-32c3.23,4.31,137.41,183.4,157.29,210.55,18.69,28.3-9.68,50.14-9.68,50.14s-31.87,20.23-51.93-7.13C341.36,430.51,218.78,237.2,218.78,237.2S218.57,237.27,218.14,237.37Z"/><path d="M80,98.79a18.84,18.84,0,0,1,26.23,4.72l67.54,97.05,18.41-12.81-67.55-97a18.85,18.85,0,1,1,30.94-21.54l67.53,97.06,18.41-12.81L174,56.36a18.83,18.83,0,1,1,30.91-21.52L272.54,132c12.49,21,4.92,45.58-2.22,60.63a100.83,100.83,0,0,1-8,14.12l.06.08-46.31,32a110.27,110.27,0,0,1-28.47,2.77c-15.15-.57-32.9-4.88-44.64-19.39L75.28,125A18.86,18.86,0,0,1,80,98.79Z"/></svg>