<svg id="Слой_1" data-name="Слой 1" xmlns="http://www.w3.org/2000/svg" viewBox="0 0 2000 2000"><defs><style>.cls-1{fill:#ff831d;}</style></defs><path d="M603.82,1109.65c-5.43-3.06-8.83-9.17-5.43-16.31l48.73-95.27c4.59-9,16.82-9.34,21.06,0l47.89,95.27c7,13.25-13.58,23.78-19.7,10.53l-7.47-14.94H626.24l-7.31,14.94C616.22,1109.65,609.93,1110.84,603.82,1109.65Zm73-43.14-19.19-41.94-20.88,41.94Z"/><path d="M731.52,1001.55a10.59,10.59,0,0,1,10.7-10.36,10.33,10.33,0,0,1,10,10.36v85.08h46.19c16.65,0,17,22.24,0,22.24H742.22c-5.94,0-10.7-4.24-10.7-10.36Z"/><path d="M828.49,1001.55a10.59,10.59,0,0,1,10.7-10.36,10.34,10.34,0,0,1,10,10.36v85.08H895.4c16.64,0,17,22.24,0,22.24H839.19c-5.94,0-10.7-4.24-10.7-10.36Z"/><path d="M1192.53,1098.69c-12,10-26.83,14.27-41.77,14.27-35.67,0-61-20.38-61-60.8,0-34.3,26.66-61,62.5-61,13.41,0,28.19,4.58,38.72,14.94,10.35,10.19-4.59,25.3-14.78,16.3-6.28-6.11-15.11-10.7-23.94-10.7-20.55,0-40.42,16.48-40.42,40.42,0,25.14,16.64,40.42,38.89,40.42,10.36,0,19.19-3.06,25.47-7.64v-20.89h-25.47c-15.12,0-13.59-20.72,0-20.72h34c6.29,0,12.06,4.76,12.06,10v36.17C1196.78,1092.58,1195.42,1095.47,1192.53,1098.69Z"/><path d="M1244,1097.67c0,14.78-22.59,15.29-22.59.34v-96.46a10.15,10.15,0,0,1,10.19-10.35h45.17c43.14,0,52,57.73,16,72.17l22.58,27.51c8.83,13.08-8.83,25.64-19,12.74l-25.64-36.68H1244Zm0-50.26h32.77c22.08,0,23.44-35.67,0-35.67H1244Z"/><path d="M1393,991.2c-30,0-61,19.59-61,59.42,0,39.67,31.08,59.59,61,58.29,28.34,0,58-19.91,58-58.29S1421.34,992.65,1393,991.2Zm-1.78,97.8c-18.14,0-37.89-13-37.89-38.38,0-25.59,19.75-38.37,37.89-38.37,18.62,0,38.54,12.78,38.54,38.37C1429.76,1076.05,1409.84,1089,1391.22,1089Z"/><path class="cls-1" d="M945.11,983.1,925.19,1016c-3.22-1.79-137-75.9-157-87.27-19.57-12.41-8-34-8-34s14.22-21.53,34.38-10.08c19.64,12.47,150.15,98.7,150.15,98.7Z"/><path d="M1069.12,1032.37a12.89,12.89,0,0,1-17.68,4.39l-69.26-41.61-7.9,13.13,69.27,41.62a12.88,12.88,0,0,1-13.26,22.08L961,1030.36l-7.9,13.14,69.26,41.61a12.87,12.87,0,1,1-13.25,22.07l-69.38-41.66c-13.66-9.61-15.82-27-15.57-38.42a69,69,0,0,1,1.06-11.06l-.06,0,19.92-32.91a75.59,75.59,0,0,1,17-9.69c9.6-3.89,21.87-6.16,33.25-.4l69.36,41.67A12.89,12.89,0,0,1,1069.12,1032.37Z"/></svg>